<svg version="1.1" viewBox="0.0 0.0 300.0 80.0" fill="none" stroke="none" stroke-linecap="square" stroke-miterlimit="10" xmlns:xlink="http://www.w3.org/1999/xlink" xmlns="http://www.w3.org/2000/svg"><clipPath id="p.0"><path d="m0 0l300.0 0l0 80.0l-300.0 0l0 -80.0z" clip-rule="nonzero"/></clipPath><g clip-path="url(#p.0)"><path fill="#000000" fill-opacity="0.0" d="m0 0l300.0 0l0 80.0l-300.0 0z" fill-rule="evenodd"/><path fill="#000000" fill-opacity="0.0" d="m0 13.322835l300.0 0l0 51.716534l-300.0 0z" fill-rule="evenodd"/><path fill="#ffa6d1" d="m16.516602 30.766582l0 -2.625l2.546875 0l0 2.625l-2.546875 0zm0.3125 17.15625l0 -14.0l1.96875 0l0 14.0l-1.96875 0zm6.627411 0l0 -14.0l1.984375 0l0 2.390625l0.03125 0q0.3125 -1.046875 1.53125 -1.953125q1.21875 -0.90625 2.90625 -0.90625q1.953125 0 3.21875 1.21875q1.265625 1.21875 1.265625 4.1875l0 9.0625l-2.03125 0l0 -8.71875q0 -4.0625 -2.921875 -4.0625q-1.609375 0 -2.78125 1.3125q-1.171875 1.296875 -1.171875 3.109375l0 8.359375l-2.03125 0zm13.488953 -12.3125l0 -1.6875l2.390625 0l0 -2.171875q0 -2.046875 1.046875 -3.046875q1.046875 -1.0 2.859375 -1.0l1.828125 0l0 1.65625l-1.5625 0q-2.140625 0 -2.140625 2.609375l0 1.953125l3.328125 0l0 1.6875l-3.328125 0l0 12.3125l-2.03125 0l0 -12.3125l-2.390625 0zm11.449646 5.3125q0 2.65625 1.21875 4.21875q1.234375 1.5625 3.046875 1.5625q1.796875 0 3.03125 -1.5625q1.25 -1.5625 1.25 -4.21875q0 -2.703125 -1.25 -4.234375q-1.25 -1.546875 -3.03125 -1.546875q-1.78125 0 -3.03125 1.546875q-1.234375 1.53125 -1.234375 4.234375zm-2.03125 0q0 -3.203125 1.65625 -5.328125q1.65625 -2.140625 4.640625 -2.140625q2.96875 0 4.640625 2.140625q1.671875 2.125 1.671875 5.328125q0 1.34375 -0.359375 2.625q-0.34375 1.28125 -1.0625 2.390625q-0.71875 1.09375 -1.984375 1.78125q-1.265625 0.671875 -2.90625 0.671875q-1.609375 0 -2.875 -0.65625q-1.25 -0.671875 -1.96875 -1.78125q-0.71875 -1.109375 -1.09375 -2.375q-0.359375 -1.28125 -0.359375 -2.65625zm15.28064 -2.15625q0 -4.875 3.21875 -7.953125q3.21875 -3.09375 8.34375 -3.09375q4.640625 0 7.53125 2.703125q2.90625 2.6875 2.90625 6.953125q0 1.953125 -0.453125 3.453125q-0.453125 1.5 -1.21875 2.328125q-0.75 0.828125 -1.578125 1.25q-0.828125 0.421875 -1.75 0.421875q-1.171875 0 -2.046875 -0.8125q-0.859375 -0.828125 -0.9375 -2.0625l-0.03125 0q-0.421875 1.078125 -1.53125 1.96875q-1.09375 0.875 -2.5625 0.875q-1.875 0 -3.125 -1.40625q-1.25 -1.40625 -1.25 -3.75q0 -3.125 1.625 -4.921875q1.640625 -1.796875 3.90625 -1.796875q1.1875 0 1.953125 0.546875q0.78125 0.53125 1.109375 1.15625l0.109375 -1.46875l1.59375 0l-0.375 7.484375q-0.046875 1.265625 0.421875 1.953125q0.46875 0.671875 1.28125 0.671875q1.34375 0 2.203125 -1.515625q0.859375 -1.53125 0.859375 -4.234375q0 -3.703125 -2.34375 -5.984375q-2.34375 -2.296875 -6.328125 -2.296875q-4.234375 0 -6.96875 2.640625q-2.734375 2.640625 -2.734375 6.890625q0 4.390625 2.609375 6.953125q2.625 2.546875 6.78125 2.546875q3.078125 0 5.8125 -0.8125l0.34375 1.40625q-2.796875 0.90625 -6.15625 0.90625q-5.09375 0 -8.15625 -3.0625q-3.0625 -3.078125 -3.0625 -7.9375zm7.421875 0.859375q0 1.5625 0.734375 2.546875q0.75 0.984375 1.953125 0.984375q0.59375 0 1.171875 -0.265625q0.59375 -0.28125 1.1875 -0.875q0.609375 -0.609375 0.96875 -1.8125q0.359375 -1.203125 0.359375 -2.84375q0 -1.171875 -0.671875 -2.03125q-0.65625 -0.859375 -2.0 -0.859375q-1.40625 0 -2.5625 1.390625q-1.140625 1.390625 -1.140625 3.765625zm17.052704 5.53125l1.515625 -0.875q1.53125 2.421875 4.15625 2.421875q1.59375 0 2.53125 -0.578125q0.953125 -0.578125 0.953125 -1.671875q0 -0.46875 -0.234375 -0.84375q-0.234375 -0.375 -0.515625 -0.625q-0.265625 -0.25 -0.96875 -0.546875q-0.703125 -0.296875 -1.15625 -0.4375q-0.453125 -0.140625 -1.484375 -0.484375q-0.921875 -0.28125 -1.578125 -0.5625q-0.640625 -0.296875 -1.34375 -0.765625q-0.703125 -0.484375 -1.078125 -1.1875q-0.375 -0.703125 -0.375 -1.625q0 -1.734375 1.40625 -2.828125q1.40625 -1.09375 3.84375 -1.09375q1.71875 0 3.140625 0.90625q1.4375 0.90625 2.0625 2.140625l-1.34375 0.875q-0.546875 -0.90625 -1.578125 -1.5625q-1.03125 -0.671875 -2.28125 -0.671875q-1.578125 0 -2.40625 0.609375q-0.8125 0.609375 -0.8125 1.65625q0 0.59375 0.3125 1.078125q0.3125 0.484375 0.9375 0.84375q0.640625 0.34375 1.171875 0.546875q0.546875 0.1875 1.421875 0.46875q0.75 0.234375 1.328125 0.453125q0.59375 0.203125 1.296875 0.5625q0.703125 0.359375 1.171875 0.765625q0.46875 0.40625 0.78125 1.015625q0.3125 0.609375 0.3125 1.3125q0 1.671875 -1.46875 2.8125q-1.46875 1.125 -4.046875 1.125q-1.875 0 -3.328125 -0.84375q-1.453125 -0.84375 -2.34375 -2.390625zm13.244904 -4.265625q0 -3.453125 1.671875 -5.4375q1.671875 -2.0 4.21875 -2.0q1.53125 0 2.65625 0.890625q1.140625 0.875 1.609375 2.015625l0 -8.65625l1.984375 0l0 20.21875l-1.9375 0l0 -2.53125q-0.546875 1.3125 -1.6875 2.15625q-1.125 0.84375 -2.625 0.84375q-1.0625 0 -2.078125 -0.4375q-1.0 -0.421875 -1.875 -1.265625q-0.859375 -0.84375 -1.40625 -2.34375q-0.53125 -1.5 -0.53125 -3.453125zm2.03125 0q0 2.625 1.140625 4.21875q1.15625 1.59375 2.96875 1.59375q1.703125 0 2.875 -1.578125q1.1875 -1.578125 1.1875 -4.234375q0 -2.625 -1.1875 -4.1875q-1.171875 -1.5625 -2.875 -1.5625q-1.84375 0 -2.984375 1.578125q-1.125 1.578125 -1.125 4.171875zm15.5147705 -0.234375q0 2.46875 1.09375 4.0q1.09375 1.515625 2.859375 1.515625q1.796875 0 2.84375 -1.453125q1.0625 -1.453125 1.0625 -4.078125q0 -2.5625 -1.078125 -4.03125q-1.078125 -1.46875 -2.765625 -1.46875q-1.828125 0 -2.921875 1.546875q-1.09375 1.546875 -1.09375 3.96875zm-2.03125 0.03125q0 -3.25 1.609375 -5.234375q1.625 -2.0 4.171875 -2.0q1.609375 0 2.640625 0.828125q1.03125 0.828125 1.46875 1.921875l0 -2.28125l1.984375 0l0 12.359375q0 3.984375 -1.421875 5.921875q-1.421875 1.9375 -4.515625 1.9375q-3.359375 0 -5.203125 -2.546875l1.40625 -0.90625q1.609375 1.8125 3.84375 1.8125q1.859375 0 2.875 -1.453125q1.03125 -1.4375 1.03125 -3.859375l0 -2.0q-0.546875 1.171875 -1.578125 1.9375q-1.015625 0.75 -2.484375 0.75q-2.640625 0 -4.234375 -2.015625q-1.59375 -2.03125 -1.59375 -5.171875zm16.270111 7.234375l0 -20.21875l1.984375 0l0 8.484375l0.046875 0q0.53125 -1.125 1.6875 -1.921875q1.15625 -0.8125 2.640625 -0.8125q4.53125 0 4.53125 5.40625l0 9.0625l-1.984375 0l0 -8.71875q0 -4.0625 -2.921875 -4.0625q-1.609375 0 -2.8125 1.328125q-1.1875 1.328125 -1.1875 3.15625l0 8.296875l-1.984375 0zm15.96286 -3.59375q0 0.984375 0.828125 1.6875q0.84375 0.6875 2.296875 0.6875q1.84375 0 3.15625 -1.203125q1.3125 -1.203125 1.3125 -3.046875l0 -1.953125q-1.140625 0.296875 -3.640625 0.6875q-2.03125 0.359375 -3.0 1.109375q-0.953125 0.75 -0.953125 2.03125zm-2.03125 0.15625q0 -3.90625 6.03125 -4.84375q2.71875 -0.4375 3.59375 -0.71875l0 -0.8125q0 -1.296875 -0.9375 -2.15625q-0.9375 -0.859375 -2.65625 -0.859375q-1.234375 0 -2.40625 0.59375q-1.15625 0.578125 -1.953125 1.5625l-1.3125 -1.09375q1.046875 -1.203125 2.515625 -1.953125q1.46875 -0.75 3.109375 -0.75q5.625 0 5.625 5.484375l0 8.984375l-1.921875 0l0 -2.296875q-0.421875 1.125 -1.734375 1.953125q-1.296875 0.8125 -3.0625 0.8125q-2.3125 0 -3.609375 -1.09375q-1.28125 -1.09375 -1.28125 -2.8125zm14.702606 -3.5625q0 -3.328125 1.6875 -5.390625q1.703125 -2.078125 4.5625 -2.078125q1.875 0 3.21875 1.078125q1.34375 1.078125 1.78125 2.5625l-1.71875 0.5q-0.390625 -1.046875 -1.265625 -1.75q-0.875 -0.703125 -2.015625 -0.703125q-1.921875 0 -3.078125 1.640625q-1.140625 1.640625 -1.140625 4.140625q0 2.65625 1.203125 4.21875q1.203125 1.5625 3.015625 1.5625q1.21875 0 2.21875 -0.796875q1.015625 -0.796875 1.421875 -1.84375l1.71875 0.546875q-0.546875 1.5625 -2.0 2.671875q-1.4375 1.109375 -3.359375 1.109375q-2.78125 0 -4.515625 -2.03125q-1.734375 -2.03125 -1.734375 -5.4375zm14.536438 7.0l0 -20.21875l2.03125 0l0 13.25l6.078125 -7.03125l2.65625 0l-5.0 5.59375l5.578125 8.40625l-2.453125 0l-4.421875 -7.0l-2.4375 2.734375l0 4.265625l-2.03125 0zm14.312439 -3.59375q0 0.984375 0.828125 1.6875q0.84375 0.6875 2.296875 0.6875q1.84375 0 3.15625 -1.203125q1.3125 -1.203125 1.3125 -3.046875l0 -1.953125q-1.140625 0.296875 -3.640625 0.6875q-2.03125 0.359375 -3.0 1.109375q-0.953125 0.75 -0.953125 2.03125zm-2.03125 0.15625q0 -3.90625 6.03125 -4.84375q2.71875 -0.4375 3.59375 -0.71875l0 -0.8125q0 -1.296875 -0.9375 -2.15625q-0.9375 -0.859375 -2.65625 -0.859375q-1.234375 0 -2.40625 0.59375q-1.15625 0.578125 -1.953125 1.5625l-1.3125 -1.09375q1.046875 -1.203125 2.515625 -1.953125q1.46875 -0.75 3.109375 -0.75q5.625 0 5.625 5.484375l0 8.984375l-1.921875 0l0 -2.296875q-0.421875 1.125 -1.734375 1.953125q-1.296875 0.8125 -3.0625 0.8125q-2.3125 0 -3.609375 -1.09375q-1.28125 -1.09375 -1.28125 -2.8125zm14.077606 -8.875l0 -1.6875l2.453125 0l0 -4.484375l2.03125 0l0 4.484375l3.6875 0l0 1.6875l-3.6875 0l0 8.203125q0 1.296875 0.484375 1.84375q0.5 0.546875 1.59375 0.546875l1.609375 0l0 1.71875l-1.875 0q-3.84375 0 -3.84375 -3.9375l0 -8.375l-2.453125 0zm11.220245 12.3125l0 -20.21875l1.984375 0l0 8.484375l0.046875 0q0.53125 -1.125 1.6875 -1.921875q1.15625 -0.8125 2.640625 -0.8125q4.53125 0 4.53125 5.40625l0 9.0625l-1.984375 0l0 -8.71875q0 -4.0625 -2.921875 -4.0625q-1.609375 0 -2.8125 1.328125q-1.1875 1.328125 -1.1875 3.15625l0 8.296875l-1.984375 0zm16.009735 -7.0q0 2.65625 1.21875 4.21875q1.234375 1.5625 3.046875 1.5625q1.796875 0 3.03125 -1.5625q1.25 -1.5625 1.25 -4.21875q0 -2.703125 -1.25 -4.234375q-1.25 -1.546875 -3.03125 -1.546875q-1.78125 0 -3.03125 1.546875q-1.234375 1.53125 -1.234375 4.234375zm-2.03125 0q0 -3.203125 1.65625 -5.328125q1.65625 -2.140625 4.640625 -2.140625q2.96875 0 4.640625 2.140625q1.671875 2.125 1.671875 5.328125q0 1.34375 -0.359375 2.625q-0.34375 1.28125 -1.0625 2.390625q-0.71875 1.09375 -1.984375 1.78125q-1.265625 0.671875 -2.90625 0.671875q-1.609375 0 -2.875 -0.65625q-1.25 -0.671875 -1.96875 -1.78125q-0.71875 -1.109375 -1.09375 -2.375q-0.359375 -1.28125 -0.359375 -2.65625zm15.827515 7.0l0 -14.0l1.984375 0l0 2.390625l0.03125 0q0.3125 -1.046875 1.53125 -1.953125q1.21875 -0.90625 2.90625 -0.90625q1.953125 0 3.21875 1.21875q1.265625 1.21875 1.265625 4.1875l0 9.0625l-2.03125 0l0 -8.71875q0 -4.0625 -2.921875 -4.0625q-1.609375 0 -2.78125 1.3125q-1.171875 1.296875 -1.171875 3.109375l0 8.359375l-2.03125 0zm15.801453 0l0 -3.09375l3.28125 0l0 3.09375l-3.28125 0zm8.522461 -17.15625l0 -2.625l2.546875 0l0 2.625l-2.546875 0zm0.3125 17.15625l0 -14.0l1.96875 0l0 14.0l-1.96875 0zm7.721161 -7.0q0 2.65625 1.21875 4.21875q1.234375 1.5625 3.046875 1.5625q1.796875 0 3.03125 -1.5625q1.25 -1.5625 1.25 -4.21875q0 -2.703125 -1.25 -4.234375q-1.25 -1.546875 -3.03125 -1.546875q-1.78125 0 -3.03125 1.546875q-1.234375 1.53125 -1.234375 4.234375zm-2.03125 0q0 -3.203125 1.65625 -5.328125q1.65625 -2.140625 4.640625 -2.140625q2.96875 0 4.640625 2.140625q1.671875 2.125 1.671875 5.328125q0 1.34375 -0.359375 2.625q-0.34375 1.28125 -1.0625 2.390625q-0.71875 1.09375 -1.984375 1.78125q-1.265625 0.671875 -2.90625 0.671875q-1.609375 0 -2.875 -0.65625q-1.25 -0.671875 -1.96875 -1.78125q-0.71875 -1.109375 -1.09375 -2.375q-0.359375 -1.28125 -0.359375 -2.65625z" fill-rule="nonzero"/></g></svg>